<?xml version="1.0" standalone="no"?>
<!DOCTYPE svg PUBLIC "-//W3C//DTD SVG 20010904//EN"
 "http://www.w3.org/TR/2001/REC-SVG-20010904/DTD/svg10.dtd">
<svg version="1.0" xmlns="http://www.w3.org/2000/svg"
 width="464.000000pt" height="74.000000pt" viewBox="0 0 464.000000 74.000000"
 preserveAspectRatio="xMidYMid meet">
<metadata>
Created by potrace 1.15, written by Peter Selinger 2001-2017
</metadata>
<g transform="translate(0.000000,74.000000) scale(0.100000,-0.100000)"
fill="#000000" stroke="none">
<path d="M360 595 l0 -125 -32 20 c-39 24 -132 27 -181 6 -41 -17 -91 -73
-108 -123 -20 -56 -18 -188 4 -245 44 -113 179 -154 273 -83 41 32 54 31 54 0
0 -22 4 -25 40 -25 l40 0 0 350 0 350 -45 0 -45 0 0 -125z m-31 -183 c25 -18
26 -23 29 -136 l3 -117 -31 -29 c-36 -34 -87 -46 -133 -34 -46 13 -77 78 -77
160 0 91 29 150 85 175 30 13 95 3 124 -19z"/>
<path d="M1550 370 l0 -350 39 0 c31 0 41 4 46 20 6 20 7 20 38 -2 26 -18 45
-23 99 -23 58 0 72 4 109 30 26 18 53 50 68 80 23 43 26 62 26 145 0 81 -4
102 -25 145 -34 69 -77 95 -152 95 -58 0 -104 -16 -140 -48 -17 -14 -18 -8
-18 121 l0 137 -45 0 -45 0 0 -350z m283 43 c31 -28 47 -77 47 -148 0 -117
-43 -175 -131 -175 -37 0 -55 6 -78 26 l-31 26 0 112 c0 109 1 113 28 139 15
14 38 31 52 36 33 14 88 6 113 -16z"/>
<path d="M3330 370 l0 -350 45 0 45 0 0 350 0 350 -45 0 -45 0 0 -350z"/>
<path d="M3986 689 c-142 -19 -227 -49 -278 -97 -23 -21 -28 -34 -28 -71 1
-118 65 -273 150 -359 98 -100 203 -138 358 -130 81 5 102 10 166 42 129 64
228 197 261 353 20 92 19 126 -5 156 -28 36 -110 72 -205 92 -96 20 -324 28
-419 14z m414 -54 c122 -28 200 -74 187 -109 -3 -8 -17 -22 -30 -30 -21 -14
-27 -14 -53 -2 -69 35 -150 49 -315 53 -179 6 -282 -7 -373 -47 -44 -19 -45
-19 -70 1 -34 26 -33 42 4 72 42 36 124 60 275 81 66 9 303 -3 375 -19z m170
-226 c-35 -128 -130 -249 -239 -302 -62 -30 -73 -32 -176 -32 -105 0 -114 2
-178 33 -39 19 -89 55 -118 85 -51 51 -110 160 -124 226 -7 30 -5 33 11 26
151 -60 339 -84 528 -66 114 11 252 43 283 66 25 18 26 14 13 -36z"/>
<path d="M701 505 c-51 -16 -94 -54 -124 -110 -31 -57 -31 -202 0 -261 55
-104 160 -145 288 -113 55 14 111 59 102 82 -11 28 -35 30 -87 8 -120 -52
-213 -8 -234 112 l-7 37 172 0 172 0 -6 58 c-9 104 -56 167 -142 191 -51 14
-79 13 -134 -4z m145 -83 c26 -21 44 -54 44 -81 0 -20 -5 -21 -120 -21 -77 0
-120 4 -120 10 0 21 30 69 56 89 34 27 109 28 140 3z"/>
<path d="M2170 494 c-46 -20 -77 -50 -103 -99 -18 -32 -22 -57 -22 -130 0 -78
4 -98 26 -140 33 -66 95 -105 177 -112 152 -14 252 82 252 242 0 39 -5 87 -11
108 -13 47 -60 102 -110 128 -47 24 -158 25 -209 3z m179 -82 c57 -41 75 -173
35 -257 -44 -94 -189 -87 -230 11 -21 49 -18 162 4 203 37 69 129 89 191 43z"/>
<path d="M1098 261 l97 -241 45 0 46 0 83 208 c47 114 90 222 98 240 l13 32
-48 0 -48 0 -66 -167 c-37 -93 -68 -174 -70 -182 -2 -7 -35 67 -73 165 l-70
179 -52 3 -52 3 97 -240z"/>
<path d="M2609 263 l77 -238 45 -3 45 -3 59 178 59 178 56 -175 57 -175 46 -3
46 -3 75 234 c42 129 76 237 76 241 0 4 -21 6 -46 4 l-47 -3 -52 -175 c-49
-161 -54 -173 -64 -147 -6 16 -11 31 -11 34 0 2 -21 70 -46 149 l-46 144 -42
0 -42 0 -59 -179 -59 -179 -51 176 -51 177 -51 3 -51 3 77 -238z"/>
</g>
</svg>
